<svg width="836" height="582" viewBox="0 0 836 582" fill="none" xmlns="http://www.w3.org/2000/svg">
<g filter="url(#filter0_dii_104_35)">
<path d="M500.739 27.1233C500.239 26.4487 500.214 25.5335 500.675 24.8321L512.486 6.89992C512.856 6.33815 513.484 6 514.156 6H632.572C633.205 6 633.801 6.30005 634.178 6.80888L824.713 263.809C825.691 265.129 824.749 267 823.106 267H760.407C759.877 267 759.368 266.789 758.993 266.414L754.164 261.586C753.789 261.211 753.281 261 752.75 261H726.821C725.256 261 724.472 262.893 725.579 264C726.686 265.107 725.902 267 724.336 267H679.586C678.952 267 678.356 266.7 677.979 266.191L636.276 209.941C635.298 208.621 636.24 206.75 637.883 206.75H654.991C656.644 206.75 657.584 204.858 656.585 203.541L613.92 147.291C613.542 146.793 612.953 146.5 612.327 146.5H590.249C589.616 146.5 589.02 146.2 588.643 145.691L500.739 27.1233Z" fill="#D2CEC8"/>
<path d="M500.739 550.877C500.239 551.551 500.214 552.466 500.675 553.168L512.486 571.1C512.856 571.662 513.484 572 514.156 572H632.572C633.205 572 633.801 571.7 634.178 571.191L824.713 314.191C825.691 312.871 824.749 311 823.106 311H760.407C759.877 311 759.368 311.211 758.993 311.586L754.164 316.414C753.789 316.789 753.281 317 752.75 317H726.821C725.256 317 724.472 315.107 725.579 314C726.686 312.893 725.902 311 724.336 311H679.586C678.952 311 678.356 311.3 677.979 311.809L636.276 368.059C635.298 369.379 636.24 371.25 637.883 371.25H654.991C656.644 371.25 657.584 373.142 656.585 374.459L613.92 430.709C613.542 431.207 612.953 431.5 612.327 431.5H590.249C589.616 431.5 589.02 431.8 588.643 432.309L500.739 550.877Z" fill="#D2CEC8"/>
<path d="M6.39338 27.1233C5.89322 26.4487 5.8678 25.5335 6.32973 24.8321L18.1403 6.89992C18.5103 6.33815 19.1379 6 19.8106 6H138.226C138.859 6 139.455 6.30005 139.833 6.80888L330.367 263.809C331.346 265.129 330.404 267 328.761 267H266.061C265.531 267 265.022 266.789 264.647 266.414L259.819 261.586C259.444 261.211 258.935 261 258.405 261H232.476C230.91 261 230.126 262.893 231.233 264C232.34 265.107 231.556 267 229.99 267H185.24C184.607 267 184.011 266.7 183.633 266.191L141.931 209.941C140.952 208.621 141.894 206.75 143.537 206.75H160.646C162.299 206.75 163.238 204.858 162.239 203.541L119.575 147.291C119.196 146.793 118.607 146.5 117.981 146.5H95.9037C95.2703 146.5 94.6743 146.2 94.2971 145.691L6.39338 27.1233Z" fill="#D2CEC8"/>
<path d="M6.39338 550.877C5.89322 551.551 5.8678 552.466 6.32973 553.168L18.1403 571.1C18.5103 571.662 19.1379 572 19.8106 572H138.226C138.859 572 139.455 571.7 139.833 571.191L330.367 314.191C331.346 312.871 330.404 311 328.761 311H266.061C265.531 311 265.022 311.211 264.647 311.586L259.819 316.414C259.444 316.789 258.935 317 258.405 317H232.476C230.91 317 230.126 315.107 231.233 314C232.34 312.893 231.556 311 229.99 311H185.24C184.607 311 184.011 311.3 183.633 311.809L141.931 368.059C140.952 369.379 141.894 371.25 143.537 371.25H160.646C162.299 371.25 163.238 373.142 162.239 374.459L119.575 430.709C119.196 431.207 118.607 431.5 117.981 431.5H95.9037C95.2703 431.5 94.6743 431.8 94.2971 432.309L6.39338 550.877Z" fill="#D2CEC8"/>
<path d="M253.566 27.1233C253.066 26.4487 253.041 25.5335 253.503 24.8321L265.313 6.89992C265.683 6.33815 266.311 6 266.983 6H385.399C386.032 6 386.628 6.30005 387.006 6.80888L577.54 263.809C578.519 265.129 577.576 267 575.933 267H513.234C512.704 267 512.195 266.789 511.82 266.414L506.992 261.586C506.617 261.211 506.108 261 505.577 261H479.648C478.083 261 477.299 262.893 478.406 264C479.513 265.107 478.729 267 477.163 267H432.413C431.779 267 431.183 266.7 430.806 266.191L389.104 209.941C388.125 208.621 389.067 206.75 390.71 206.75H407.818C409.471 206.75 410.411 204.858 409.412 203.541L366.747 147.291C366.369 146.793 365.78 146.5 365.154 146.5H343.077C342.443 146.5 341.847 146.2 341.47 145.691L253.566 27.1233Z" fill="#D2CEC8"/>
<path d="M253.566 550.877C253.066 551.551 253.041 552.466 253.503 553.168L265.313 571.1C265.683 571.662 266.311 572 266.983 572H385.399C386.032 572 386.628 571.7 387.006 571.191L577.54 314.191C578.519 312.871 577.576 311 575.933 311H513.234C512.704 311 512.195 311.211 511.82 311.586L506.992 316.414C506.617 316.789 506.108 317 505.577 317H479.648C478.083 317 477.299 315.107 478.406 314C479.513 312.893 478.729 311 477.163 311H432.413C431.779 311 431.183 311.3 430.806 311.809L389.104 368.059C388.125 369.379 389.067 371.25 390.71 371.25H407.818C409.471 371.25 410.411 373.142 409.412 374.459L366.747 430.709C366.369 431.207 365.78 431.5 365.154 431.5H343.077C342.443 431.5 341.847 431.8 341.47 432.309L253.566 550.877Z" fill="#D2CEC8"/>
</g>
<defs>
<filter id="filter0_dii_104_35" x="0" y="0" width="835.11" height="582" filterUnits="userSpaceOnUse" color-interpolation-filters="sRGB">
<feFlood flood-opacity="0" result="BackgroundImageFix"/>
<feColorMatrix in="SourceAlpha" type="matrix" values="0 0 0 0 0 0 0 0 0 0 0 0 0 0 0 0 0 0 127 0" result="hardAlpha"/>
<feOffset dx="2" dy="2"/>
<feGaussianBlur stdDeviation="4"/>
<feComposite in2="hardAlpha" operator="out"/>
<feColorMatrix type="matrix" values="0 0 0 0 0 0 0 0 0 0 0 0 0 0 0 0 0 0 0.03 0"/>
<feBlend mode="normal" in2="BackgroundImageFix" result="effect1_dropShadow_104_35"/>
<feBlend mode="normal" in="SourceGraphic" in2="effect1_dropShadow_104_35" result="shape"/>
<feColorMatrix in="SourceAlpha" type="matrix" values="0 0 0 0 0 0 0 0 0 0 0 0 0 0 0 0 0 0 127 0" result="hardAlpha"/>
<feOffset dx="1" dy="1"/>
<feGaussianBlur stdDeviation="6"/>
<feComposite in2="hardAlpha" operator="arithmetic" k2="-1" k3="1"/>
<feColorMatrix type="matrix" values="0 0 0 0 0 0 0 0 0 0 0 0 0 0 0 0 0 0 0.05 0"/>
<feBlend mode="normal" in2="shape" result="effect2_innerShadow_104_35"/>
<feColorMatrix in="SourceAlpha" type="matrix" values="0 0 0 0 0 0 0 0 0 0 0 0 0 0 0 0 0 0 127 0" result="hardAlpha"/>
<feOffset/>
<feGaussianBlur stdDeviation="6"/>
<feComposite in2="hardAlpha" operator="arithmetic" k2="-1" k3="1"/>
<feColorMatrix type="matrix" values="0 0 0 0 0 0 0 0 0 0 0 0 0 0 0 0 0 0 0.15 0"/>
<feBlend mode="normal" in2="effect2_innerShadow_104_35" result="effect3_innerShadow_104_35"/>
</filter>
</defs>
</svg>
