<svg width="736" height="64" viewBox="0 0 736 64" fill="none" xmlns="http://www.w3.org/2000/svg">
<g clip-path="url(#clip0_262_9)">
<mask id="path-1-inside-1_262_9" fill="white">
<path d="M0 0H736V64H0V0Z"/>
</mask>
<rect width="8" height="64" fill="black"/>
<rect x="156" width="8" height="64" fill="black"/>
<rect x="200" width="8" height="64" fill="black"/>
<rect x="16" width="24" height="64" fill="black"/>
<rect x="52" width="16" height="64" fill="black"/>
<rect x="136" width="16" height="64" fill="black"/>
<rect x="76" width="8" height="64" fill="black"/>
<rect x="104" width="8" height="64" fill="black"/>
<rect x="88" width="4" height="64" fill="black"/>
<rect x="194" width="2" height="64" fill="black"/>
<rect x="178" width="4" height="64" fill="black"/>
<rect x="188" width="4" height="64" fill="black"/>
<rect x="118" width="4" height="64" fill="black"/>
<rect x="126" width="4" height="64" fill="black"/>
<rect width="8" height="64" transform="matrix(-1 0 0 1 408 0)" fill="black"/>
<rect width="8" height="64" transform="matrix(-1 0 0 1 252 0)" fill="black"/>
<rect width="8" height="64" transform="matrix(-1 0 0 1 208 0)" fill="black"/>
<rect width="24" height="64" transform="matrix(-1 0 0 1 392 0)" fill="black"/>
<rect width="16" height="64" transform="matrix(-1 0 0 1 356 0)" fill="black"/>
<rect width="16" height="64" transform="matrix(-1 0 0 1 272 0)" fill="black"/>
<rect width="8" height="64" transform="matrix(-1 0 0 1 332 0)" fill="black"/>
<rect width="8" height="64" transform="matrix(-1 0 0 1 304 0)" fill="black"/>
<rect width="4" height="64" transform="matrix(-1 0 0 1 320 0)" fill="black"/>
<rect width="2" height="64" transform="matrix(-1 0 0 1 214 0)" fill="black"/>
<rect width="4" height="64" transform="matrix(-1 0 0 1 230 0)" fill="black"/>
<rect width="4" height="64" transform="matrix(-1 0 0 1 220 0)" fill="black"/>
<rect width="4" height="64" transform="matrix(-1 0 0 1 290 0)" fill="black"/>
<rect width="4" height="64" transform="matrix(-1 0 0 1 282 0)" fill="black"/>
<rect width="8" height="64" transform="matrix(-1 0 0 1 654 0)" fill="black"/>
<rect width="8" height="64" transform="matrix(-1 0 0 1 498 0)" fill="black"/>
<rect width="8" height="64" transform="matrix(-1 0 0 1 454 0)" fill="black"/>
<rect width="24" height="64" transform="matrix(-1 0 0 1 638 0)" fill="black"/>
<rect width="16" height="64" transform="matrix(-1 0 0 1 602 0)" fill="black"/>
<rect width="16" height="64" transform="matrix(-1 0 0 1 518 0)" fill="black"/>
<rect width="8" height="64" transform="matrix(-1 0 0 1 578 0)" fill="black"/>
<rect width="8" height="64" transform="matrix(-1 0 0 1 550 0)" fill="black"/>
<rect width="4" height="64" transform="matrix(-1 0 0 1 566 0)" fill="black"/>
<rect width="2" height="64" transform="matrix(-1 0 0 1 460 0)" fill="black"/>
<rect width="4" height="64" transform="matrix(-1 0 0 1 476 0)" fill="black"/>
<rect width="4" height="64" transform="matrix(-1 0 0 1 466 0)" fill="black"/>
<rect width="4" height="64" transform="matrix(-1 0 0 1 536 0)" fill="black"/>
<rect width="4" height="64" transform="matrix(-1 0 0 1 528 0)" fill="black"/>
<rect width="8" height="64" transform="matrix(-1 0 0 1 718 0)" fill="black"/>
<rect width="8" height="64" transform="matrix(-1 0 0 1 674 0)" fill="black"/>
<rect width="16" height="64" transform="matrix(-1 0 0 1 738 0)" fill="black"/>
<rect width="2" height="64" transform="matrix(-1 0 0 1 680 0)" fill="black"/>
<rect width="4" height="64" transform="matrix(-1 0 0 1 696 0)" fill="black"/>
<rect width="4" height="64" transform="matrix(-1 0 0 1 686 0)" fill="black"/>
</g>
<path d="M736 0H734V64H736H738V0H736ZM0 64H2V0H0H-2V64H0Z" fill="black" mask="url(#path-1-inside-1_262_9)"/>
<defs>
<clipPath id="clip0_262_9">
<path d="M0 0H736V64H0V0Z" fill="white"/>
</clipPath>
</defs>
</svg>
