<svg width="618" height="48" viewBox="0 0 618 48" fill="none" xmlns="http://www.w3.org/2000/svg">
<path d="M594 0H618L594 48H570L594 0Z" fill="black"/>
<path d="M554 0H578L554 48H530L554 0Z" fill="black"/>
<path d="M514 0H538L514 48H490L514 0Z" fill="black"/>
<path d="M476 0H500L476 48H452L476 0Z" fill="black"/>
<path d="M438 0H462L438 48H414L438 0Z" fill="black"/>
<path d="M400 0H424L400 48H376L400 0Z" fill="black"/>
<path d="M44 0H68L44 48H20L44 0Z" fill="black"/>
<path d="M24 0H36L12 48H0L24 0Z" fill="black"/>
<path d="M78 0H390L366 48H54L78 0Z" fill="black"/>
</svg>
