<svg width="48" height="44" viewBox="0 0 48 44" fill="none" xmlns="http://www.w3.org/2000/svg">
<path d="M12.12 22.64H14.56L24.12 36H21.4L12.12 22.64ZM7.36 8H9.56V36H7.36V8ZM8.52 9.96V8H13.76C15.5733 8 17.1867 8.32 18.6 8.96C20.04 9.6 21.1733 10.52 22 11.72C22.8267 12.92 23.24 14.3867 23.24 16.12C23.24 17.8267 22.8267 19.2933 22 20.52C21.1733 21.7467 20.04 22.68 18.6 23.32C17.1867 23.9333 15.5733 24.24 13.76 24.24H8.52V22.28H13.76C15.1733 22.28 16.4267 22.0533 17.52 21.6C18.64 21.12 19.5067 20.4267 20.12 19.52C20.7333 18.5867 21.04 17.4533 21.04 16.12C21.04 14.7867 20.72 13.6667 20.08 12.76C19.4667 11.8533 18.6133 11.16 17.52 10.68C16.4267 10.2 15.1733 9.96 13.76 9.96H8.52ZM29.8575 22.64H32.2975L41.8575 36H39.1375L29.8575 22.64ZM25.0975 8H27.2975V36H25.0975V8ZM26.2575 9.96V8H31.4975C33.3108 8 34.9242 8.32 36.3375 8.96C37.7775 9.6 38.9108 10.52 39.7375 11.72C40.5642 12.92 40.9775 14.3867 40.9775 16.12C40.9775 17.8267 40.5642 19.2933 39.7375 20.52C38.9108 21.7467 37.7775 22.68 36.3375 23.32C34.9242 23.9333 33.3108 24.24 31.4975 24.24H26.2575V22.28H31.4975C32.9108 22.28 34.1642 22.0533 35.2575 21.6C36.3775 21.12 37.2442 20.4267 37.8575 19.52C38.4708 18.5867 38.7775 17.4533 38.7775 16.12C38.7775 14.7867 38.4575 13.6667 37.8175 12.76C37.2042 11.8533 36.3508 11.16 35.2575 10.68C34.1642 10.2 32.9108 9.96 31.4975 9.96H26.2575Z" fill="white"/>
<mask id="path-2-inside-1_215_6" fill="white">
<path d="M0 0H6V44H0V0Z"/>
</mask>
<path d="M0 0V-1H-2V0H0ZM0 44H-2V45H0V44ZM0 0V1H6V0V-1H0V0ZM6 44V43H0V44V45H6V44ZM0 44H2V0H0H-2V44H0Z" fill="white" mask="url(#path-2-inside-1_215_6)"/>
<mask id="path-4-inside-2_215_6" fill="white">
<path d="M42 0H48V44H42V0Z"/>
</mask>
<path d="M48 0H50V-1H48V0ZM48 44V45H50V44H48ZM42 0V1H48V0V-1H42V0ZM48 0H46V44H48H50V0H48ZM48 44V43H42V44V45H48V44Z" fill="white" mask="url(#path-4-inside-2_215_6)"/>
</svg>
